<svg xmlns="http://www.w3.org/2000/svg" width="512" height="512" viewBox="0 0 512 512">
  <g id="Group_3068" data-name="Group 3068" transform="translate(-3122 -1374)">
    <rect id="Rectangle_1391" data-name="Rectangle 1391" width="512" height="512" rx="70" transform="translate(3122 1374)" fill="#fff"/>
    <path id="download_2_" data-name="download (2)" d="M434.667,141.17V263.836H312V141.17Zm-95.407,27.259v68.148h68.148V168.429Z" transform="translate(2907.825 1525.075)" fill="#ffd501" fill-rule="evenodd"/>
    <path id="download_2_2" data-name="download (2)" d="M398.49,139.759a68.148,68.148,0,1,1-68.148,68.148A68.155,68.155,0,0,1,398.49,139.759Zm0,27.259a40.889,40.889,0,1,0,40.889,40.889A40.886,40.886,0,0,0,398.49,167.018Z" transform="translate(3066.669 1512.856)" fill="#1271d8" fill-rule="evenodd"/>
    <path id="download_2_3" data-name="download (2)" d="M485.326,256.5h-156l78-136.514ZM376.289,229.239h62.07l-31.035-54.3Z" transform="translate(3057.835 1341.599)" fill="#00d478" fill-rule="evenodd"/>
    <path id="chat_1" d="M136.478,34.281c-4.629-2.713-32.2-18.551-39.513-22.813a31.3,31.3,0,0,0-31.659.136C58.105,15.88,30.789,31.547,26.195,34.2A31.255,31.255,0,0,0,10.533,61.3v45.549A31.25,31.25,0,0,0,25.876,133.76c4.665,2.766,32.342,18.642,39.653,22.9a31.3,31.3,0,0,0,31.458-.011c7.3-4.26,34.666-20.036,39.242-22.659a31.263,31.263,0,0,0,15.736-27.147V61.276A31.243,31.243,0,0,0,136.478,34.281ZM116.991,95.56a15.8,15.8,0,0,1-7.949,13.715c-2.313,1.324-16.136,9.294-19.824,11.45a15.833,15.833,0,0,1-15.893.005c-3.693-2.155-17.677-10.174-20.034-11.572a15.788,15.788,0,0,1-7.751-13.6V72.547a15.788,15.788,0,0,1,7.912-13.69c2.322-1.34,16.122-9.254,19.76-11.414a15.819,15.819,0,0,1,15.994-.069C92.9,49.527,106.829,57.526,109.169,58.9a15.788,15.788,0,0,1,7.824,13.639C116.991,77.077,116.991,91.02,116.991,95.56Z" transform="translate(3201.158 1448.641)" fill="#ff8000"/>
  </g>
</svg>
